<?xml version="1.0" standalone="no"?>
<!DOCTYPE svg PUBLIC "-//W3C//DTD SVG 20010904//EN"
 "http://www.w3.org/TR/2001/REC-SVG-20010904/DTD/svg10.dtd">
<svg version="1.0" xmlns="http://www.w3.org/2000/svg"
 width="3200.000000pt" height="1600.000000pt" viewBox="0 0 3200.000000 1600.000000"
 preserveAspectRatio="xMidYMid meet">

<g transform="translate(0.000000,1600.000000) scale(0.100000,-0.100000)"
fill="#000000" stroke="none">
<path d="M13500 12650 l0 -50 -50 0 -50 0 0 -300 0 -300 -50 0 -50 0 0 -250 0
-250 -50 0 -50 0 0 -300 0 -300 -50 0 -50 0 0 -250 0 -250 -50 0 -50 0 0 -250
0 -250 -50 0 -50 0 0 -50 0 -50 -100 0 -100 0 0 -50 0 -50 -50 0 -50 0 0 -50
0 -50 -50 0 -50 0 0 -50 0 -50 -50 0 -50 0 0 -50 0 -50 -50 0 -50 0 0 -50 0
-50 -100 0 -100 0 0 -50 0 -50 -50 0 -50 0 0 -50 0 -50 -50 0 -50 0 0 -50 0
-50 -50 0 -50 0 0 -150 0 -150 -100 0 -100 0 0 -100 0 -100 -50 0 -50 0 0
-350 0 -350 150 0 150 0 0 -50 0 -50 150 0 150 0 0 -50 0 -50 150 0 150 0 0
-50 0 -50 50 0 50 0 0 450 0 450 -200 0 -200 0 0 100 0 100 50 0 50 0 0 50 0
50 -100 0 -100 0 0 50 0 50 100 0 100 0 0 50 0 50 100 0 100 0 0 50 0 50 100
0 100 0 0 50 0 50 100 0 100 0 0 -200 0 -200 100 0 100 0 0 -150 0 -150 -100
0 -100 0 0 -500 0 -500 150 0 150 0 0 -50 0 -50 50 0 50 0 0 650 0 650 50 0
50 0 0 50 0 50 400 0 400 0 0 -150 0 -150 -300 0 -300 0 0 -100 0 -100 250 0
250 0 0 -150 0 -150 -250 0 -250 0 0 -300 0 -300 -50 0 -50 0 0 -50 0 -50 150
0 150 0 0 -50 0 -50 150 0 150 0 0 -50 0 -50 150 0 150 0 0 -50 0 -50 200 0
200 0 0 -50 0 -50 100 0 100 0 0 200 0 200 350 0 350 0 0 -50 0 -50 -300 0
-300 0 0 -100 0 -100 250 0 250 0 0 -50 0 -50 -250 0 -250 0 0 -50 0 -50 150
0 150 0 0 -50 0 -50 150 0 150 0 0 -50 0 -50 50 0 50 0 0 350 0 350 50 0 50 0
0 -350 0 -350 50 0 50 0 0 200 0 200 250 0 250 0 0 -250 0 -250 -50 0 -50 0 0
-50 0 -50 -100 0 -100 0 0 -50 0 -50 -150 0 -150 0 0 50 0 50 -150 0 -150 0 0
50 0 50 -150 0 -150 0 0 50 0 50 -100 0 -100 0 0 -50 0 -50 -50 0 -50 0 0 100
0 100 -100 0 -100 0 0 -100 0 -100 -150 0 -150 0 0 150 0 150 -50 0 -50 0 0
-150 0 -150 -50 0 -50 0 0 200 0 200 -100 0 -100 0 0 -200 0 -200 -250 0 -250
0 0 150 0 150 200 0 200 0 0 50 0 50 -200 0 -200 0 0 50 0 50 50 0 50 0 0 50
0 50 -150 0 -150 0 0 50 0 50 -150 0 -150 0 0 50 0 50 -100 0 -100 0 0 -50 0
-50 -150 0 -150 0 0 -350 0 -350 -50 0 -50 0 0 350 0 350 -150 0 -150 0 0 50
0 50 300 0 300 0 0 50 0 50 -200 0 -200 0 0 50 0 50 -150 0 -150 0 0 50 0 50
-150 0 -150 0 0 50 0 50 -100 0 -100 0 0 -200 0 -200 50 0 50 0 0 -250 0 -250
50 0 50 0 0 -150 0 -150 50 0 50 0 0 -150 0 -150 50 0 50 0 0 -100 0 -100 50
0 50 0 0 -100 0 -100 50 0 50 0 0 -100 0 -100 50 0 50 0 0 -50 0 -50 -50 0
-50 0 0 -300 0 -300 -50 0 -50 0 0 -200 0 -200 150 0 150 0 0 50 0 50 100 0
100 0 0 50 0 50 200 0 200 0 0 -50 0 -50 50 0 50 0 0 -50 0 -50 100 0 100 0 0
-50 0 -50 50 0 50 0 0 -50 0 -50 50 0 50 0 0 -50 0 -50 100 0 100 0 0 -50 0
-50 50 0 50 0 0 -50 0 -50 100 0 100 0 0 -50 0 -50 100 0 100 0 0 -50 0 -50
100 0 100 0 0 -50 0 -50 150 0 150 0 0 -50 0 -50 50 0 50 0 0 -50 0 -50 50 0
50 0 0 50 0 50 50 0 50 0 0 -50 0 -50 250 0 250 0 0 -50 0 -50 650 0 650 0 0
50 0 50 150 0 150 0 0 -50 0 -50 100 0 100 0 0 100 0 100 150 0 150 0 0 50 0
50 150 0 150 0 0 50 0 50 100 0 100 0 0 50 0 50 100 0 100 0 0 50 0 50 100 0
100 0 0 50 0 50 50 0 50 0 0 50 0 50 100 0 100 0 0 50 0 50 50 0 50 0 0 50 0
50 50 0 50 0 0 50 0 50 100 0 100 0 0 50 0 50 50 0 50 0 0 50 0 50 50 0 50 0
0 50 0 50 50 0 50 0 0 50 0 50 50 0 50 0 0 100 0 100 50 0 50 0 0 50 0 50
-100 0 -100 0 0 50 0 50 -200 0 -200 0 0 50 0 50 -150 0 -150 0 0 50 0 50
-150 0 -150 0 0 50 0 50 -150 0 -150 0 0 50 0 50 -150 0 -150 0 0 50 0 50
-200 0 -200 0 0 50 0 50 -150 0 -150 0 0 50 0 50 -150 0 -150 0 0 50 0 50
-150 0 -150 0 0 50 0 50 -50 0 -50 0 0 50 0 50 250 0 250 0 0 -50 0 -50 150 0
150 0 0 -50 0 -50 150 0 150 0 0 -50 0 -50 200 0 200 0 0 -50 0 -50 150 0 150
0 0 -50 0 -50 150 0 150 0 0 -50 0 -50 150 0 150 0 0 -50 0 -50 150 0 150 0 0
-50 0 -50 200 0 200 0 0 -50 0 -50 150 0 150 0 0 50 0 50 50 0 50 0 0 50 0 50
50 0 50 0 0 100 0 100 50 0 50 0 0 100 0 100 50 0 50 0 0 100 0 100 50 0 50 0
0 150 0 150 -50 0 -50 0 0 250 0 250 -50 0 -50 0 0 100 0 100 -100 0 -100 0 0
-100 0 -100 100 0 100 0 0 -50 0 -50 -100 0 -100 0 0 -200 0 -200 -50 0 -50 0
0 200 0 200 -50 0 -50 0 0 50 0 50 50 0 50 0 0 150 0 150 100 0 100 0 0 50 0
50 -150 0 -150 0 0 50 0 50 -50 0 -50 0 0 50 0 50 -50 0 -50 0 0 200 0 200
-100 0 -100 0 0 50 0 50 -50 0 -50 0 0 100 0 100 100 0 100 0 0 50 0 50 -50 0
-50 0 0 50 0 50 -50 0 -50 0 0 100 0 100 -50 0 -50 0 0 100 0 100 -50 0 -50 0
0 50 0 50 -250 0 -250 0 0 150 0 150 -50 0 -50 0 0 50 0 50 -50 0 -50 0 0 50
0 50 -50 0 -50 0 0 50 0 50 -50 0 -50 0 0 50 0 50 -100 0 -100 0 0 50 0 50
-50 0 -50 0 0 50 0 50 -100 0 -100 0 0 -150 0 -150 50 0 50 0 0 -100 0 -100
50 0 50 0 0 -100 0 -100 50 0 50 0 0 -100 0 -100 -700 0 -700 0 0 50 0 50 -50
0 -50 0 0 100 0 100 -50 0 -50 0 0 50 0 50 -50 0 -50 0 0 50 0 50 -50 0 -50 0
0 50 0 50 -100 0 -100 0 0 50 0 50 -100 0 -100 0 0 50 0 50 -150 0 -150 0 0
50 0 50 -250 0 -250 0 0 -50 0 -50 -100 0 -100 0 0 -50 0 -50 -50 0 -50 0 0
100 0 100 50 0 50 0 0 50 0 50 50 0 50 0 0 100 0 100 50 0 50 0 0 50 0 50 100
0 100 0 0 50 0 50 100 0 100 0 0 50 0 50 100 0 100 0 0 50 0 50 150 0 150 0 0
50 0 50 200 0 200 0 0 50 0 50 150 0 150 0 0 100 0 100 -200 0 -200 0 0 50 0
50 -250 0 -250 0 0 50 0 50 -200 0 -200 0 0 -50 0 -50 -150 0 -150 0 0 -50 0
-50 -100 0 -100 0 0 -50 0 -50 -50 0 -50 0 0 -50 0 -50 -50 0 -50 0 0 -100 0
-100 -50 0 -50 0 0 -100 0 -100 -50 0 -50 0 0 -100 0 -100 -50 0 -50 0 0 -100
0 -100 -50 0 -50 0 0 -100 0 -100 -50 0 -50 0 0 -100 0 -100 -50 0 -50 0 0 50
0 50 -50 0 -50 0 0 100 0 100 -50 0 -50 0 0 50 0 50 -100 0 -100 0 0 50 0 50
-150 0 -150 0 0 150 0 150 50 0 50 0 0 250 0 250 50 0 50 0 0 300 0 300 50 0
50 0 0 250 0 250 50 0 50 0 0 300 0 300 100 0 100 0 0 -50 0 -50 100 0 100 0
0 -50 0 -50 100 0 100 0 0 -50 0 -50 100 0 100 0 0 -50 0 -50 100 0 100 0 0
-50 0 -50 50 0 50 0 0 -50 0 -50 100 0 100 0 0 -50 0 -50 100 0 100 0 0 -50 0
-50 100 0 100 0 0 -50 0 -50 100 0 100 0 0 -50 0 -50 100 0 100 0 0 -50 0 -50
50 0 50 0 0 -50 0 -50 100 0 100 0 0 -50 0 -50 100 0 100 0 0 -50 0 -50 100 0
100 0 0 -50 0 -50 100 0 100 0 0 -50 0 -50 100 0 100 0 0 -50 0 -50 50 0 50 0
0 -50 0 -50 100 0 100 0 0 -50 0 -50 100 0 100 0 0 -50 0 -50 100 0 100 0 0
-50 0 -50 100 0 100 0 0 -50 0 -50 100 0 100 0 0 -50 0 -50 100 0 100 0 0 -50
0 -50 50 0 50 0 0 -50 0 -50 100 0 100 0 0 -50 0 -50 100 0 100 0 0 -50 0 -50
100 0 100 0 0 -50 0 -50 100 0 100 0 0 -50 0 -50 100 0 100 0 0 -50 0 -50 50
0 50 0 0 -50 0 -50 100 0 100 0 0 -50 0 -50 100 0 100 0 0 -50 0 -50 100 0
100 0 0 -50 0 -50 100 0 100 0 0 -100 0 -100 -400 0 -400 0 0 -100 0 -100 50
0 50 0 0 -100 0 -100 50 0 50 0 0 100 0 100 150 0 150 0 0 -250 0 -250 100 0
100 0 0 -150 0 -150 -50 0 -50 0 0 -50 0 -50 -50 0 -50 0 0 -100 0 -100 100 0
100 0 0 -50 0 -50 50 0 50 0 0 -50 0 -50 50 0 50 0 0 -100 0 -100 100 0 100 0
0 -150 0 -150 50 0 50 0 0 150 0 150 50 0 50 0 0 350 0 350 100 0 100 0 0 50
0 50 100 0 100 0 0 50 0 50 150 0 150 0 0 50 0 50 100 0 100 0 0 50 0 50 100
0 100 0 0 100 0 100 -100 0 -100 0 0 50 0 50 -100 0 -100 0 0 50 0 50 -100 0
-100 0 0 50 0 50 -100 0 -100 0 0 50 0 50 -100 0 -100 0 0 50 0 50 -100 0
-100 0 0 50 0 50 -50 0 -50 0 0 50 0 50 -100 0 -100 0 0 50 0 50 -100 0 -100
0 0 50 0 50 -100 0 -100 0 0 50 0 50 -100 0 -100 0 0 50 0 50 -100 0 -100 0 0
50 0 50 -50 0 -50 0 0 50 0 50 -100 0 -100 0 0 50 0 50 -100 0 -100 0 0 50 0
50 -100 0 -100 0 0 50 0 50 -100 0 -100 0 0 50 0 50 -100 0 -100 0 0 50 0 50
-50 0 -50 0 0 50 0 50 -100 0 -100 0 0 50 0 50 -100 0 -100 0 0 50 0 50 -100
0 -100 0 0 50 0 50 -100 0 -100 0 0 50 0 50 -100 0 -100 0 0 50 0 50 -100 0
-100 0 0 50 0 50 -50 0 -50 0 0 50 0 50 -100 0 -100 0 0 50 0 50 -100 0 -100
0 0 50 0 50 -100 0 -100 0 0 50 0 50 -100 0 -100 0 0 50 0 50 -100 0 -100 0 0
50 0 50 -50 0 -50 0 0 50 0 50 -100 0 -100 0 0 50 0 50 -100 0 -100 0 0 50 0
50 -100 0 -100 0 0 50 0 50 -100 0 -100 0 0 50 0 50 -100 0 -100 0 0 50 0 50
-50 0 -50 0 0 50 0 50 -100 0 -100 0 0 50 0 50 -100 0 -100 0 0 50 0 50 -100
0 -100 0 0 50 0 50 -100 0 -100 0 0 50 0 50 -200 0 -200 0 0 -50z m1700 -3400
l0 -50 150 0 150 0 0 -50 0 -50 100 0 100 0 0 -50 0 -50 100 0 100 0 0 -50 0
-50 50 0 50 0 0 -50 0 -50 -850 0 -850 0 0 100 0 100 -50 0 -50 0 0 50 0 50
100 0 100 0 0 50 0 50 250 0 250 0 0 50 0 50 150 0 150 0 0 -50z m-1700 -100
l0 -50 150 0 150 0 0 -50 0 -50 -100 0 -100 0 0 -50 0 -50 -50 0 -50 0 0 -50
0 -50 -250 0 -250 0 0 200 0 200 250 0 250 0 0 -50z m600 -300 l0 -50 -50 0
-50 0 0 50 0 50 50 0 50 0 0 -50z m6500 -100 l0 -50 100 0 100 0 0 -50 0 -50
100 0 100 0 0 -50 0 -50 100 0 100 0 0 -100 0 -100 -150 0 -150 0 0 -50 0 -50
-100 0 -100 0 0 -50 0 -50 -50 0 -50 0 0 200 0 200 -50 0 -50 0 0 150 0 150
50 0 50 0 0 -50z m-6000 -400 l0 -350 50 0 50 0 0 150 0 150 100 0 100 0 0
200 0 200 150 0 150 0 0 -700 0 -700 -150 0 -150 0 0 50 0 50 -50 0 -50 0 0
100 0 100 -50 0 -50 0 0 -100 0 -100 -50 0 -50 0 0 -50 0 -50 -150 0 -150 0 0
700 0 700 150 0 150 0 0 -350z m2100 250 l0 -100 100 0 100 0 0 -150 0 -150
-150 0 -150 0 0 50 0 50 -50 0 -50 0 0 50 0 50 -100 0 -100 0 0 -50 0 -50 50
0 50 0 0 -50 0 -50 50 0 50 0 0 -50 0 -50 100 0 100 0 0 -100 0 -100 100 0
100 0 0 -200 0 -200 -100 0 -100 0 0 -100 0 -100 -300 0 -300 0 0 100 0 100
-50 0 -50 0 0 150 0 150 150 0 150 0 0 -50 0 -50 50 0 50 0 0 -50 0 -50 50 0
50 0 0 50 0 50 50 0 50 0 0 50 0 50 -100 0 -100 0 0 50 0 50 -150 0 -150 0 0
100 0 100 -50 0 -50 0 0 200 0 200 50 0 50 0 0 100 0 100 300 0 300 0 0 -100z
m2300 -50 l0 -150 -100 0 -100 0 0 -50 0 -50 -50 0 -50 0 0 -50 0 -50 50 0 50
0 0 -150 0 -150 -50 0 -50 0 0 -300 0 -300 -150 0 -150 0 0 300 0 300 -100 0
-100 0 0 150 0 150 100 0 100 0 0 150 0 150 50 0 50 0 0 50 0 50 50 0 50 0 0
50 0 50 200 0 200 0 0 -150z m-1200 -300 l0 -50 50 0 50 0 0 -50 0 -50 50 0
50 0 0 -300 0 -300 -50 0 -50 0 0 -50 0 -50 -50 0 -50 0 0 -50 0 -50 -200 0
-200 0 0 50 0 50 -50 0 -50 0 0 50 0 50 -50 0 -50 0 0 50 0 50 -50 0 -50 0 0
200 0 200 50 0 50 0 0 50 0 50 50 0 50 0 0 50 0 50 50 0 50 0 0 50 0 50 200 0
200 0 0 -50z m1800 -1450 l0 -400 -50 0 -50 0 0 400 0 400 50 0 50 0 0 -400z
m-6300 0 l0 -100 -200 0 -200 0 0 -100 0 -100 200 0 200 0 0 -50 0 -50 -250 0
-250 0 0 250 0 250 250 0 250 0 0 -100z m3300 -50 l0 -150 50 0 50 0 0 100 0
100 50 0 50 0 0 -100 0 -100 50 0 50 0 0 150 0 150 50 0 50 0 0 -200 0 -200
-50 0 -50 0 0 -50 0 -50 -150 0 -150 0 0 50 0 50 -50 0 -50 0 0 200 0 200 50
0 50 0 0 -150z m1000 50 l0 -100 -200 0 -200 0 0 -100 0 -100 200 0 200 0 0
-50 0 -50 -250 0 -250 0 0 250 0 250 250 0 250 0 0 -100z m600 50 l0 -50 -150
0 -150 0 0 -200 0 -200 -50 0 -50 0 0 250 0 250 200 0 200 0 0 -50z m200 -100
l0 -150 50 0 50 0 0 100 0 100 50 0 50 0 0 -100 0 -100 50 0 50 0 0 150 0 150
50 0 50 0 0 -200 0 -200 -50 0 -50 0 0 -50 0 -50 -150 0 -150 0 0 50 0 50 -50
0 -50 0 0 200 0 200 50 0 50 0 0 -150z m1000 -100 l0 -250 -250 0 -250 0 0
250 0 250 250 0 250 0 0 -250z m-7000 -1500 l0 -50 50 0 50 0 0 -50 0 -50 50
0 50 0 0 -100 0 -100 -100 0 -100 0 0 -50 0 -50 -50 0 -50 0 0 250 0 250 50 0
50 0 0 -50z"/>
<path d="M17500 7950 l0 -50 -50 0 -50 0 0 -100 0 -100 50 0 50 0 0 -50 0 -50
100 0 100 0 0 50 0 50 50 0 50 0 0 100 0 100 -50 0 -50 0 0 50 0 50 -100 0
-100 0 0 -50z"/>
<path d="M19000 6650 l0 -150 150 0 150 0 0 150 0 150 -150 0 -150 0 0 -150z"/>
<path d="M16100 10150 l0 -50 -50 0 -50 0 0 -50 0 -50 -50 0 -50 0 0 -50 0
-50 100 0 100 0 0 50 0 50 150 0 150 0 0 -50 0 -50 50 0 50 0 0 -50 0 -50 100
0 100 0 0 50 0 50 100 0 100 0 0 -50 0 -50 50 0 50 0 0 -50 0 -50 50 0 50 0 0
-50 0 -50 50 0 50 0 0 100 0 100 -50 0 -50 0 0 50 0 50 -50 0 -50 0 0 50 0 50
-200 0 -200 0 0 50 0 50 -100 0 -100 0 0 50 0 50 -150 0 -150 0 0 -50z"/>
<path d="M16000 6650 l0 -150 150 0 150 0 0 150 0 150 -150 0 -150 0 0 -150z"/>
<path d="M13600 6550 l0 -50 150 0 150 0 0 50 0 50 -150 0 -150 0 0 -50z"/>
</g>
</svg>
