<?xml version="1.0" standalone="no"?>
<!DOCTYPE svg PUBLIC "-//W3C//DTD SVG 20010904//EN"
 "http://www.w3.org/TR/2001/REC-SVG-20010904/DTD/svg10.dtd">
<svg version="1.0" xmlns="http://www.w3.org/2000/svg"
 width="320.000000pt" height="160.000000pt" viewBox="0 0 320.000000 160.000000"
 preserveAspectRatio="xMidYMid meet">

<g transform="translate(0.000000,160.000000) scale(0.100000,-0.100000)"
fill="#000000" stroke="none">
<path d="M0 800 l0 -800 1600 0 1600 0 0 800 0 800 -1600 0 -1600 0 0 -800z
m1754 375 c47 -80 86 -147 86 -149 0 -3 -72 35 -160 82 -88 48 -160 90 -160
94 0 8 131 118 141 118 4 0 46 -65 93 -145z m-72 -92 c175 -95 182 -100 217
-155 57 -90 62 -96 55 -75 -8 21 21 24 30 2 3 -9 20 -15 43 -16 l38 -1 -32
-10 c-18 -6 -33 -17 -33 -25 0 -7 -7 -16 -15 -19 -20 -8 -19 -21 3 -26 25 -7
188 -286 174 -300 -7 -7 -87 14 -259 67 -136 42 -252 81 -258 86 -21 20 41 5
254 -61 124 -39 228 -69 232 -68 9 4 -136 249 -147 249 -15 0 -45 32 -41 43 2
6 -3 17 -12 24 -11 9 -12 15 -4 18 20 9 -25 74 -52 74 -14 0 -25 7 -27 18 -6
22 -76 78 -85 68 -4 -3 1 -22 10 -41 9 -20 17 -38 17 -40 0 -3 -31 -5 -68 -5
-64 0 -70 2 -90 29 -29 40 -105 68 -143 54 -33 -13 -36 -7 -11 23 21 27 65 49
125 65 26 6 47 15 47 19 0 4 -27 13 -59 19 -89 18 -121 1 -163 -83 l-32 -65
-22 25 c-13 13 -30 24 -39 24 -23 0 -18 26 13 59 34 38 134 120 145 121 5 0
90 -44 189 -97z m-382 -75 c0 -7 -27 -35 -60 -61 -33 -27 -60 -55 -60 -63 0
-8 -6 -14 -13 -12 -17 4 -93 -59 -83 -69 8 -8 156 -6 164 2 8 8 -27 35 -44 35
-16 0 -16 1 2 15 15 11 16 15 4 15 -8 1 1 9 20 20 44 24 50 24 50 1 0 -11 6
-22 13 -25 7 -4 8 -8 2 -11 -30 -16 -40 -27 -27 -32 6 -2 12 -13 12 -23 0 -10
6 -21 13 -24 10 -5 10 -7 0 -12 -19 -9 -16 -21 7 -27 13 -3 20 0 20 8 0 7 6
16 13 19 10 5 10 7 0 12 -7 3 -13 14 -13 25 0 10 -4 19 -10 19 -16 0 -12 22 8
36 24 19 92 18 92 -1 0 -8 -8 -14 -17 -13 -36 3 -63 -2 -63 -12 0 -5 16 -10
35 -10 24 0 35 -5 35 -15 0 -10 -10 -15 -27 -15 -22 0 -25 -2 -13 -10 10 -7
11 -12 4 -17 -6 -5 -13 -15 -16 -24 -5 -13 20 -24 137 -60 92 -28 138 -47 129
-52 -8 -5 -109 22 -256 68 -134 42 -258 81 -275 86 -18 6 -33 16 -33 23 0 10
236 216 247 216 2 0 3 -6 3 -12z m260 -101 l45 -22 -84 -3 c-60 -2 -87 1 -92
10 -10 16 -7 19 33 28 48 12 49 12 98 -13z m-202 7 c21 -6 21 -7 5 -20 -28
-21 -63 -18 -63 6 0 21 16 25 58 14z m102 -60 c0 -8 7 -22 15 -30 13 -14 15
-12 15 16 0 29 3 32 23 26 12 -3 36 -6 52 -7 29 -1 28 -2 -10 -13 -27 -9 -35
-15 -25 -19 11 -5 12 -8 3 -13 -7 -3 -13 -12 -13 -20 0 -8 -6 -14 -12 -14 -8
0 -9 -3 -3 -8 15 -11 15 -42 0 -42 -8 0 -21 7 -29 16 -15 14 -16 14 -16 -1 0
-10 -7 -15 -17 -13 -10 2 -18 10 -18 18 0 8 -4 18 -10 22 -6 5 -5 8 3 8 6 0
12 6 12 14 0 8 6 17 13 20 10 5 10 7 0 12 -18 8 -16 44 2 44 8 0 15 -7 15 -16z
m225 4 c29 -13 32 -23 9 -32 -24 -9 -36 -7 -28 5 4 7 1 10 -6 7 -7 -2 -15 -14
-17 -26 -2 -17 2 -22 21 -22 30 0 40 -32 15 -48 -30 -19 -67 -15 -74 9 -9 27
1 36 25 21 10 -6 22 -8 24 -3 7 11 -17 21 -50 21 -30 0 -30 5 2 37 20 20 23
28 12 34 -21 13 37 11 67 -3z m215 -2 c0 -8 -6 -16 -12 -18 -15 -5 -17 -50 -3
-61 6 -6 6 -10 -2 -14 -7 -2 -13 -11 -13 -19 0 -8 -7 -14 -15 -14 -8 0 -15 7
-15 15 0 8 5 15 10 15 19 0 10 17 -17 29 -21 9 -28 9 -34 0 -6 -10 -11 -10
-24 1 -18 15 -42 0 -31 -19 9 -15 39 -14 54 1 6 6 15 9 18 5 9 -9 -37 -46 -57
-47 -20 0 -44 27 -52 58 -4 18 0 25 19 33 34 12 55 11 52 -2 -2 -6 3 -14 10
-16 6 -3 12 0 12 6 0 15 37 14 43 -1 2 -8 8 -9 13 -4 5 5 4 11 -3 13 -28 10
-5 53 29 53 10 0 18 -6 18 -14z"/>
<path d="M1624 1266 l-29 -25 32 -1 c17 0 38 -3 47 -6 21 -8 20 5 -3 34 l-18
24 -29 -26z"/>
<path d="M1599 1004 c-12 -15 -11 -16 9 -10 14 5 29 3 37 -4 8 -6 19 -9 25 -5
6 4 20 -1 31 -11 10 -9 19 -12 19 -6 0 13 -15 23 -60 39 -45 16 -45 16 -61 -3z"/>
<path d="M1195 772 c49 -19 75 -19 75 -1 0 5 -10 9 -22 9 -13 0 -41 2 -63 5
l-40 5 50 -18z"/>
</g>
</svg>
