<?xml version="1.0" standalone="no"?>
<!DOCTYPE svg PUBLIC "-//W3C//DTD SVG 20010904//EN"
 "http://www.w3.org/TR/2001/REC-SVG-20010904/DTD/svg10.dtd">
<svg version="1.0" xmlns="http://www.w3.org/2000/svg"
 width="320.000000pt" height="160.000000pt" viewBox="0 0 320.000000 160.000000"
 preserveAspectRatio="xMidYMid meet">

<g transform="translate(0.000000,160.000000) scale(0.100000,-0.100000)"
fill="#000000" stroke="none">
<path d="M1345 1258 c-2 -7 -14 -70 -26 -139 l-22 -126 -58 -48 c-33 -26 -59
-51 -59 -57 0 -5 -7 -16 -15 -24 -8 -9 -15 -30 -15 -48 0 -30 4 -33 50 -48
l50 -16 0 44 c0 38 -3 44 -21 44 -15 0 -19 5 -15 15 3 8 0 15 -7 15 -12 1 51
39 66 40 4 0 7 -9 7 -20 0 -11 5 -20 10 -20 6 0 10 -7 10 -15 0 -8 -4 -15 -10
-15 -5 0 -10 -22 -10 -49 0 -40 4 -50 20 -54 17 -4 19 1 22 62 l3 66 43 3 c33
2 42 0 42 -12 0 -11 -10 -16 -30 -16 -16 0 -30 -4 -30 -10 0 -5 11 -10 25 -10
16 0 25 -6 25 -15 0 -9 -9 -15 -24 -15 -20 0 -25 -6 -28 -34 -4 -36 -4 -36
125 -72 12 -4 17 0 17 15 0 18 6 21 38 19 36 -1 36 -1 5 -5 -40 -5 -44 -23 -5
-24 l27 -1 -30 -7 -30 -6 38 -12 37 -11 1 36 2 37 7 -40 c4 -22 8 -30 9 -17 1
16 7 22 26 22 20 0 25 -5 25 -25 0 -38 -32 -50 -87 -31 -25 9 -49 13 -53 11
-5 -3 -11 1 -14 7 -5 10 -7 10 -12 1 -9 -19 -34 -16 -35 5 0 14 -2 14 -9 -3
-8 -19 -9 -19 -9 3 -1 27 -21 30 -21 2 0 -15 -7 -20 -25 -20 -32 0 -34 30 -2
31 21 1 21 1 -3 9 -14 4 -20 9 -15 10 6 1 -7 8 -27 15 -54 20 -76 10 -81 -34
l-4 -36 -1 37 c-1 25 -7 38 -19 41 -10 3 -2 5 17 6 33 2 31 3 -25 21 -32 11
-61 17 -63 15 -8 -7 19 -112 41 -160 19 -42 22 -58 15 -99 -5 -27 -7 -51 -4
-53 2 -3 20 1 39 8 33 12 37 10 85 -24 45 -34 123 -75 162 -85 28 -7 225 -10
230 -3 3 4 26 15 53 25 54 20 161 96 176 125 9 16 8 21 -7 25 -117 34 -289 90
-297 97 -19 19 34 7 174 -36 80 -25 151 -43 157 -41 7 3 22 23 34 45 17 34 19
48 11 82 -10 45 -17 56 -28 45 -4 -4 -1 -11 7 -16 10 -7 11 -10 3 -10 -7 0
-13 -10 -14 -22 -1 -22 -1 -22 -8 2 -9 31 -3 60 13 60 6 0 0 6 -14 13 -14 7
-27 21 -29 32 -2 11 -11 26 -20 33 -11 9 -12 15 -4 18 20 9 -25 74 -52 74 -14
0 -25 7 -27 18 -6 22 -76 78 -85 68 -4 -3 1 -22 10 -41 9 -20 17 -38 17 -40 0
-3 -31 -5 -68 -5 -64 0 -70 2 -90 29 -29 40 -105 68 -143 54 -33 -13 -36 -7
-11 23 21 27 65 49 125 65 26 6 47 15 47 19 0 4 -27 13 -59 19 -89 18 -121 1
-163 -83 l-32 -65 -22 25 c-13 13 -30 24 -40 24 -12 0 -15 6 -11 23 3 12 14
67 23 122 10 55 19 102 20 104 4 5 644 -343 644 -351 0 -5 -18 -8 -40 -8 -42
0 -46 -5 -30 -30 6 -10 10 -11 10 -2 0 6 7 12 15 12 9 0 15 -9 15 -24 0 -13 6
-26 13 -29 9 -3 9 -9 -1 -26 -11 -18 -8 -24 18 -49 16 -16 30 -35 31 -43 1
-26 18 25 18 57 1 29 6 34 56 54 30 12 55 25 55 29 -1 10 -786 431 -804 431
-9 0 -18 -6 -21 -12z m215 -351 l45 -22 -84 -3 c-60 -2 -87 1 -92 10 -10 16
-7 19 33 28 48 12 49 12 98 -13z m-202 7 c21 -6 21 -7 5 -20 -28 -21 -63 -18
-63 6 0 21 16 25 58 14z m762 -74 c0 -3 -13 -11 -30 -17 -23 -8 -30 -8 -30 0
0 7 -3 22 -6 35 l-7 23 37 -17 c20 -10 36 -20 36 -24z m-659 -7 c1 -21 3 -30
6 -20 2 9 9 17 14 17 5 0 9 9 9 20 0 11 7 20 15 20 12 0 15 -14 15 -70 0 -54
-3 -70 -15 -70 -7 0 -18 7 -23 16 -8 15 -10 15 -15 0 -4 -9 -13 -16 -22 -16
-12 0 -15 14 -15 70 0 56 3 70 15 70 10 0 15 -11 16 -37z m215 23 c8 -8 14
-19 14 -25 0 -14 -27 -14 -35 -1 -3 6 -12 10 -18 10 -7 0 3 -13 21 -29 17 -16
32 -34 32 -41 0 -39 -74 -56 -85 -19 -9 27 1 36 25 21 12 -7 21 -8 25 -2 3 5
-5 12 -19 16 -47 11 -46 84 0 84 14 0 32 -6 40 -14z m224 0 c0 -8 -6 -16 -12
-18 -7 -3 -13 -13 -14 -24 0 -10 -1 -34 -2 -51 -3 -44 -32 -46 -32 -3 0 17 -4
30 -10 30 -5 0 -10 7 -10 15 0 8 5 15 10 15 6 0 10 6 10 13 0 19 21 37 42 37
10 0 18 -6 18 -14z m-112 -38 c7 -7 12 -24 12 -38 0 -47 -37 -65 -72 -33 -22
20 -23 41 -1 65 19 21 44 23 61 6z m169 -160 c-2 -13 -4 -3 -4 22 0 25 2 35 4
23 2 -13 2 -33 0 -45z m-627 22 c0 -5 -9 -10 -20 -10 -27 0 -25 -18 3 -23 19
-4 18 -4 -5 -6 -24 -1 -28 3 -28 24 0 20 5 25 25 25 14 0 25 -4 25 -10z m339
-10 c1 13 3 13 10 1 7 -11 10 -10 14 5 4 13 5 11 4 -6 -1 -18 -8 -25 -22 -25
-14 0 -21 7 -22 25 -2 23 -2 23 6 5 7 -14 10 -15 10 -5z m91 10 c0 -5 -9 -10
-20 -10 -27 0 -25 -18 3 -23 19 -4 18 -4 -5 -6 -24 -1 -28 3 -28 24 0 20 5 25
25 25 14 0 25 -4 25 -10z m48 3 c-9 -2 -19 -14 -21 -26 -4 -18 -5 -17 -6 6 -1
22 3 27 22 26 15 -1 17 -3 5 -6z m41 -13 c1 13 3 13 10 1 7 -11 10 -10 14 5 4
13 5 11 4 -6 -1 -18 -8 -25 -22 -25 -14 0 -21 7 -22 25 -2 23 -2 23 6 5 7 -14
10 -15 10 -5z m91 -5 c0 -20 -5 -25 -25 -25 -20 0 -25 5 -25 25 0 20 5 25 25
25 20 0 25 -5 25 -25z m-680 -175 c0 -4 -7 -10 -15 -14 -11 -4 -15 2 -15 21 0
21 2 24 15 13 8 -7 15 -16 15 -20z"/>
<path d="M1744 789 c-10 -17 13 -36 27 -22 12 12 4 33 -11 33 -5 0 -12 -5 -16
-11z"/>
<path d="M1900 665 c0 -8 7 -15 15 -15 8 0 15 7 15 15 0 8 -7 15 -15 15 -8 0
-15 -7 -15 -15z"/>
<path d="M1599 1004 c-12 -15 -11 -16 9 -10 14 5 29 3 37 -4 8 -6 19 -9 25 -5
6 4 20 -1 31 -11 10 -9 19 -12 19 -6 0 13 -15 23 -60 39 -45 16 -45 16 -61 -3z"/>
<path d="M1600 665 c0 -8 7 -15 15 -15 8 0 15 7 15 15 0 8 -7 15 -15 15 -8 0
-15 -7 -15 -15z"/>
<path d="M1368 653 c7 -3 16 -2 19 1 4 3 -2 6 -13 5 -11 0 -14 -3 -6 -6z"/>
</g>
</svg>
