<?xml version="1.0" standalone="no"?>
<!DOCTYPE svg PUBLIC "-//W3C//DTD SVG 20010904//EN"
 "http://www.w3.org/TR/2001/REC-SVG-20010904/DTD/svg10.dtd">
<svg version="1.0" xmlns="http://www.w3.org/2000/svg"
 width="264.000000pt" height="280.000000pt" viewBox="0 0 264.000000 280.000000"
 preserveAspectRatio="xMidYMid meet">

<g transform="translate(0.000000,280.000000) scale(0.100000,-0.100000)"
fill="#000000" stroke="none">
<path d="M690 2390 c0 -5 -7 -10 -15 -10 -12 0 -15 -15 -15 -75 0 -43 -4 -75
-10 -75 -6 0 -10 -28 -10 -65 0 -51 -3 -65 -15 -65 -12 0 -15 -15 -15 -75 0
-43 -4 -75 -10 -75 -6 0 -10 -27 -10 -60 0 -47 -3 -60 -15 -60 -12 0 -15 -14
-15 -65 0 -37 -4 -65 -10 -65 -5 0 -10 -7 -10 -15 0 -9 -9 -15 -25 -15 -14 0
-25 -4 -25 -10 0 -5 -7 -10 -15 -10 -8 0 -15 -5 -15 -11 0 -14 -25 -39 -39
-39 -6 0 -11 -5 -11 -11 0 -17 -27 -39 -49 -39 -12 0 -21 -6 -21 -15 0 -8 -5
-15 -11 -15 -14 0 -39 -25 -39 -39 0 -6 -7 -11 -15 -11 -10 0 -15 -11 -15 -35
0 -31 -3 -35 -25 -35 -20 0 -25 -5 -25 -25 0 -14 -4 -25 -10 -25 -6 0 -10 -37
-10 -90 l0 -90 35 0 c19 0 35 -4 35 -10 0 -5 18 -10 40 -10 29 0 40 -4 40 -15
0 -10 11 -15 35 -15 19 0 35 -4 35 -10 0 -5 7 -10 15 -10 12 0 15 19 15 110
l0 110 -50 0 c-47 0 -50 2 -50 25 0 14 5 25 10 25 6 0 10 7 10 15 0 9 -9 15
-25 15 -14 0 -25 5 -25 10 0 6 11 10 25 10 16 0 25 6 25 15 0 9 9 15 25 15 14
0 25 5 25 10 0 6 11 10 25 10 16 0 25 6 25 15 0 9 9 15 25 15 23 0 25 -3 25
-50 0 -47 2 -50 25 -50 23 0 25 -4 25 -40 0 -36 -2 -40 -25 -40 l-25 0 0 -125
0 -125 40 0 c22 0 40 -4 40 -10 0 -5 5 -10 10 -10 6 0 10 60 10 160 0 136 2
160 15 160 8 0 15 7 15 15 0 12 18 15 100 15 l100 0 0 -40 0 -40 -75 0 c-73 0
-75 -1 -75 -25 0 -24 3 -25 60 -25 l60 0 0 -35 0 -35 -60 0 -60 0 0 -75 c0
-60 -3 -75 -15 -75 -8 0 -15 -7 -15 -15 0 -11 11 -15 40 -15 22 0 40 -4 40
-10 0 -5 16 -10 35 -10 24 0 35 -5 35 -15 0 -11 11 -15 40 -15 22 0 40 -4 40
-10 0 -5 23 -10 50 -10 38 0 50 -4 50 -15 0 -9 9 -15 25 -15 23 0 25 3 25 50
l0 50 85 0 c50 0 85 -4 85 -10 0 -6 -32 -10 -75 -10 -73 0 -75 -1 -75 -25 0
-24 2 -25 65 -25 51 0 65 -3 65 -15 0 -12 -14 -15 -65 -15 -37 0 -65 -4 -65
-10 0 -5 18 -10 40 -10 29 0 40 -4 40 -15 0 -10 11 -15 35 -15 24 0 35 -5 35
-15 0 -8 7 -15 15 -15 12 0 15 17 15 90 0 53 4 90 10 90 6 0 10 -37 10 -90 0
-73 3 -90 15 -90 12 0 15 13 15 55 l0 55 60 0 60 0 0 -65 c0 -51 -3 -65 -15
-65 -8 0 -15 -7 -15 -15 0 -8 -9 -15 -20 -15 -11 0 -20 -4 -20 -10 0 -5 -18
-10 -40 -10 -22 0 -40 5 -40 10 0 6 -16 10 -35 10 -24 0 -35 5 -35 15 0 11
-11 15 -40 15 -22 0 -40 5 -40 10 0 6 -11 10 -25 10 -14 0 -25 -4 -25 -10 0
-5 -4 -10 -10 -10 -5 0 -10 11 -10 25 0 20 -5 25 -25 25 -20 0 -25 -5 -25 -25
0 -22 -4 -25 -40 -25 l-40 0 0 40 c0 22 -4 40 -10 40 -5 0 -10 -18 -10 -40 0
-29 -4 -40 -15 -40 -11 0 -15 12 -15 50 0 47 -2 50 -25 50 -23 0 -25 -3 -25
-50 l0 -50 -60 0 -60 0 0 40 0 40 50 0 c28 0 50 5 50 10 0 6 -22 10 -50 10
-38 0 -50 4 -50 15 0 8 5 15 10 15 6 0 10 5 10 10 0 6 -16 10 -35 10 -24 0
-35 5 -35 15 0 11 -11 15 -40 15 -22 0 -40 5 -40 10 0 6 -11 10 -25 10 -14 0
-25 -4 -25 -10 0 -5 -16 -10 -35 -10 l-35 0 0 -90 c0 -73 -3 -90 -15 -90 -12
0 -15 17 -15 90 l0 90 -35 0 c-19 0 -35 5 -35 10 0 6 32 10 75 10 60 0 75 3
75 15 0 11 -12 15 -50 15 -27 0 -50 5 -50 10 0 6 -18 10 -40 10 -29 0 -40 4
-40 15 0 10 -11 15 -35 15 -19 0 -35 5 -35 10 0 6 -11 10 -25 10 -23 0 -25 -3
-25 -50 0 -27 5 -50 10 -50 6 0 10 -27 10 -60 0 -47 3 -60 15 -60 11 0 15 -11
15 -40 0 -22 5 -40 10 -40 6 0 10 -18 10 -40 0 -29 4 -40 15 -40 9 0 15 -9 15
-25 0 -14 5 -25 10 -25 6 0 10 -11 10 -25 0 -16 6 -25 15 -25 9 0 15 -9 15
-24 0 -13 6 -27 13 -30 10 -5 10 -7 0 -12 -9 -4 -13 -30 -13 -80 0 -59 -3 -74
-15 -74 -11 0 -15 -12 -15 -50 l0 -50 40 0 c22 0 40 5 40 10 0 6 11 10 25 10
16 0 25 6 25 15 0 11 12 15 50 15 29 0 50 -5 50 -11 0 -17 27 -39 49 -39 12 0
21 -6 21 -15 0 -8 5 -15 11 -15 14 0 39 -25 39 -39 0 -6 11 -11 25 -11 14 0
25 -4 25 -10 0 -5 7 -10 15 -10 8 0 15 -7 15 -15 0 -9 9 -15 25 -15 14 0 25
-4 25 -10 0 -5 11 -10 25 -10 16 0 25 -6 25 -15 0 -9 9 -15 25 -15 14 0 25 -4
25 -10 0 -5 16 -10 35 -10 24 0 35 -5 35 -15 0 -8 6 -15 14 -15 8 0 17 -6 20
-12 5 -10 7 -10 12 0 7 14 34 16 34 2 0 -6 27 -10 60 -10 47 0 60 -3 60 -15 0
-13 24 -15 160 -15 136 0 160 2 160 15 0 11 11 15 40 15 29 0 40 -4 40 -15 0
-9 9 -15 25 -15 20 0 25 5 25 25 0 22 4 25 35 25 24 0 35 5 35 15 0 11 11 15
40 15 22 0 40 5 40 10 0 6 11 10 25 10 16 0 25 6 25 15 0 9 9 15 25 15 14 0
25 5 25 10 0 6 11 10 25 10 14 0 25 5 25 11 0 17 27 39 49 39 12 0 21 6 21 15
0 8 5 15 11 15 14 0 39 25 39 39 0 6 11 11 25 11 14 0 25 5 25 10 0 6 7 10 15
10 8 0 15 5 15 11 0 14 25 39 39 39 6 0 11 7 11 15 0 8 5 15 10 15 6 0 10 11
10 25 0 16 6 25 15 25 8 0 15 5 15 10 0 6 -11 10 -25 10 -16 0 -25 6 -25 15 0
11 -12 15 -50 15 -27 0 -50 5 -50 10 0 6 -18 10 -40 10 -29 0 -40 4 -40 15 0
10 -11 15 -35 15 -19 0 -35 5 -35 10 0 6 -18 10 -40 10 -29 0 -40 4 -40 15 0
10 -11 15 -35 15 -19 0 -35 5 -35 10 0 6 -22 10 -50 10 -38 0 -50 4 -50 15 0
11 -11 15 -40 15 -22 0 -40 5 -40 10 0 6 -16 10 -35 10 -24 0 -35 5 -35 15 0
11 -11 15 -36 15 -35 0 -64 18 -64 39 0 7 24 11 60 11 47 0 60 -3 60 -15 0
-11 11 -15 40 -15 22 0 40 -4 40 -10 0 -5 16 -10 35 -10 24 0 35 -5 35 -15 0
-11 12 -15 50 -15 28 0 50 -4 50 -10 0 -5 18 -10 40 -10 29 0 40 -4 40 -15 0
-10 11 -15 35 -15 19 0 35 -4 35 -10 0 -5 18 -10 40 -10 29 0 40 -4 40 -15 0
-10 11 -15 35 -15 19 0 35 -4 35 -10 0 -5 23 -10 50 -10 38 0 50 -4 50 -15 0
-11 11 -15 40 -15 22 0 40 5 40 11 0 14 25 39 39 39 6 0 11 11 11 25 0 14 5
25 10 25 6 0 10 11 10 25 0 16 6 25 15 25 9 0 15 9 15 25 0 14 5 25 10 25 6 0
10 18 10 40 0 22 -4 40 -10 40 -6 0 -10 28 -10 65 0 51 -3 65 -15 65 -9 0 -15
9 -15 25 0 20 -5 25 -25 25 -20 0 -25 -5 -25 -25 0 -20 5 -25 25 -25 16 0 25
-6 25 -15 0 -9 -9 -15 -25 -15 -23 0 -25 -3 -25 -50 0 -27 -4 -50 -10 -50 -5
0 -10 23 -10 50 0 38 -4 50 -15 50 -8 0 -15 7 -15 15 0 8 7 15 15 15 10 0 15
11 15 35 0 31 3 35 25 35 16 0 25 6 25 15 0 11 -11 15 -36 15 -35 0 -64 18
-64 39 0 6 -7 11 -15 11 -11 0 -15 12 -15 50 0 44 -3 50 -21 50 -26 0 -49 23
-49 49 0 16 6 21 25 21 16 0 25 6 25 15 0 8 -5 15 -11 15 -17 0 -39 27 -39 49
0 12 -6 21 -15 21 -9 0 -15 9 -15 25 0 14 -4 25 -10 25 -5 0 -10 7 -10 15 0
12 -14 15 -65 15 l-65 0 0 35 c0 19 -4 35 -10 35 -5 0 -10 7 -10 15 0 8 -5 15
-11 15 -14 0 -39 25 -39 39 0 6 -7 11 -15 11 -8 0 -15 5 -15 10 0 6 -11 10
-25 10 -14 0 -25 5 -25 11 0 17 -27 39 -49 39 -17 0 -21 -6 -21 -35 0 -19 5
-35 10 -35 6 0 10 -11 10 -25 0 -16 6 -25 15 -25 9 0 15 -9 15 -25 0 -14 5
-25 10 -25 6 0 10 -11 10 -25 l0 -25 -171 0 c-181 0 -199 4 -199 49 0 12 -6
21 -15 21 -8 0 -15 6 -15 13 0 7 -9 19 -20 27 -11 8 -20 20 -20 27 0 7 -11 13
-25 13 -14 0 -25 5 -25 10 0 6 -11 10 -25 10 -16 0 -25 6 -25 15 0 11 -11 15
-40 15 -22 0 -40 5 -40 10 0 6 -27 10 -60 10 -33 0 -60 -4 -60 -10 0 -5 -11
-10 -25 -10 -16 0 -25 -6 -25 -15 0 -8 -7 -15 -15 -15 -9 0 -15 9 -15 25 0 16
6 25 15 25 8 0 15 7 15 15 0 8 5 15 10 15 6 0 10 11 10 25 0 16 6 25 15 25 8
0 15 7 15 15 0 9 9 15 25 15 14 0 25 5 25 10 0 6 11 10 25 10 16 0 25 6 25 15
0 9 9 15 25 15 14 0 25 5 25 10 0 6 16 10 35 10 24 0 35 5 35 15 0 11 12 15
50 15 28 0 50 5 50 10 0 6 16 10 35 10 31 0 35 3 35 25 0 23 -4 25 -45 25 -33
0 -45 4 -45 15 0 12 -14 15 -65 15 -37 0 -65 4 -65 10 0 6 -22 10 -50 10 -27
0 -50 -4 -50 -10 0 -5 -16 -10 -35 -10 -24 0 -35 -5 -35 -15 0 -9 -9 -15 -25
-15 -14 0 -25 -4 -25 -10 0 -5 -7 -10 -15 -10 -8 0 -15 -7 -15 -15 0 -8 -4
-15 -10 -15 -5 0 -10 -11 -10 -25 0 -16 -6 -25 -15 -25 -9 0 -15 -9 -15 -25 0
-14 -4 -25 -10 -25 -5 0 -10 -11 -10 -25 0 -16 -6 -25 -15 -25 -9 0 -15 -9
-15 -25 0 -14 -4 -25 -10 -25 -5 0 -10 -11 -10 -25 0 -16 -6 -25 -15 -25 -9 0
-15 -9 -15 -25 0 -14 -4 -25 -10 -25 -5 0 -10 5 -10 10 0 6 -7 10 -15 10 -9 0
-15 9 -15 25 0 14 -4 25 -10 25 -5 0 -10 7 -10 15 0 9 -9 15 -25 15 -16 0 -25
6 -25 15 0 11 -11 15 -40 15 -39 0 -40 1 -40 35 0 24 5 35 15 35 12 0 15 14
15 65 0 37 4 65 10 65 6 0 10 32 10 75 0 60 3 75 15 75 12 0 15 13 15 60 0 33
4 60 10 60 6 0 10 32 10 75 0 73 1 75 25 75 14 0 25 -4 25 -10 0 -5 11 -10 25
-10 16 0 25 -6 25 -15 0 -9 9 -15 25 -15 14 0 25 -4 25 -10 0 -5 11 -10 25
-10 16 0 25 -6 25 -15 0 -9 9 -15 25 -15 14 0 25 -4 25 -10 0 -5 7 -10 15 -10
8 0 15 -7 15 -15 0 -9 9 -15 25 -15 14 0 25 -4 25 -10 0 -5 11 -10 25 -10 16
0 25 -6 25 -15 0 -9 9 -15 25 -15 14 0 25 -4 25 -10 0 -5 11 -10 25 -10 16 0
25 -6 25 -15 0 -9 9 -15 21 -15 22 0 49 -22 49 -39 0 -6 11 -11 25 -11 14 0
25 -4 25 -10 0 -5 11 -10 25 -10 16 0 25 -6 25 -15 0 -9 9 -15 25 -15 14 0 25
-4 25 -10 0 -5 11 -10 25 -10 16 0 25 -6 25 -15 0 -9 9 -15 21 -15 22 0 49
-22 49 -39 0 -6 11 -11 25 -11 14 0 25 -4 25 -10 0 -5 11 -10 25 -10 16 0 25
-6 25 -15 0 -9 9 -15 25 -15 14 0 25 -4 25 -10 0 -5 11 -10 25 -10 16 0 25 -6
25 -15 0 -9 9 -15 25 -15 14 0 25 -4 25 -10 0 -5 11 -10 25 -10 16 0 25 -6 25
-15 0 -8 7 -15 15 -15 8 0 15 -4 15 -10 0 -5 11 -10 25 -10 16 0 25 -6 25 -15
0 -9 9 -15 25 -15 16 0 25 -6 25 -15 0 -9 9 -15 25 -15 14 0 25 -4 25 -10 0
-5 11 -10 25 -10 16 0 25 -6 25 -15 0 -9 9 -15 21 -15 22 0 49 -22 49 -39 0
-6 11 -11 25 -11 14 0 25 -4 25 -10 0 -5 11 -10 25 -10 16 0 25 -6 25 -15 0
-9 9 -15 25 -15 14 0 25 -4 25 -10 0 -5 11 -10 25 -10 20 0 25 -5 25 -25 l0
-25 -100 0 -100 0 0 -25 c0 -16 6 -25 15 -25 9 0 15 -9 15 -25 0 -14 5 -25 10
-25 6 0 10 11 10 25 0 23 4 25 40 25 l40 0 0 -65 c0 -63 1 -65 25 -65 22 0 25
-4 25 -35 0 -24 -5 -35 -15 -35 -8 0 -15 -7 -15 -15 0 -8 -4 -15 -10 -15 -5 0
-10 -11 -10 -25 0 -19 5 -25 21 -25 22 0 49 -22 49 -39 0 -6 7 -11 15 -11 9 0
15 -9 15 -25 0 -20 5 -25 25 -25 22 0 25 -4 25 -35 0 -19 5 -35 10 -35 6 0 10
16 10 35 0 24 5 35 15 35 12 0 15 17 15 90 0 89 0 90 25 90 14 0 25 5 25 10 0
6 11 10 25 10 16 0 25 6 25 15 0 10 10 15 34 15 38 0 46 12 46 68 0 61 -10 82
-36 82 -13 0 -24 5 -24 10 0 6 -11 10 -25 10 -16 0 -25 6 -25 15 0 9 -9 15
-25 15 -14 0 -25 5 -25 10 0 6 -11 10 -25 10 -14 0 -25 5 -25 11 0 17 -27 39
-49 39 -12 0 -21 6 -21 15 0 9 -9 15 -25 15 -14 0 -25 5 -25 10 0 6 -11 10
-25 10 -16 0 -25 6 -25 15 0 9 -9 15 -25 15 -14 0 -25 5 -25 10 0 6 -11 10
-25 10 -16 0 -25 6 -25 15 0 8 -7 15 -15 15 -8 0 -15 5 -15 10 0 6 -11 10 -25
10 -16 0 -25 6 -25 15 0 9 -9 15 -25 15 -16 0 -25 6 -25 15 0 9 -9 15 -25 15
-14 0 -25 5 -25 10 0 6 -11 10 -25 10 -16 0 -25 6 -25 15 0 9 -9 15 -21 15
-22 0 -49 22 -49 39 0 6 -11 11 -25 11 -14 0 -25 5 -25 10 0 6 -11 10 -25 10
-16 0 -25 6 -25 15 0 9 -9 15 -25 15 -14 0 -25 5 -25 10 0 6 -11 10 -25 10
-16 0 -25 6 -25 15 0 9 -9 15 -25 15 -14 0 -25 5 -25 10 0 6 -11 10 -25 10
-16 0 -25 6 -25 15 0 8 -7 15 -15 15 -8 0 -15 5 -15 10 0 6 -11 10 -25 10 -16
0 -25 6 -25 15 0 9 -9 15 -25 15 -14 0 -25 5 -25 10 0 6 -11 10 -25 10 -16 0
-25 6 -25 15 0 8 -9 15 -20 15 -11 0 -20 5 -20 10 0 6 -11 10 -25 10 -16 0
-25 6 -25 15 0 8 -7 15 -15 15 -8 0 -15 5 -15 10 0 6 -11 10 -25 10 -16 0 -25
6 -25 15 0 9 -9 15 -25 15 -14 0 -25 5 -25 10 0 6 -11 10 -25 10 -16 0 -25 6
-25 15 0 9 -9 15 -25 15 -14 0 -25 5 -25 10 0 6 -11 10 -25 10 -14 0 -25 5
-25 11 0 17 -27 39 -49 39 -12 0 -21 6 -21 15 0 9 -9 15 -25 15 -14 0 -25 5
-25 10 0 6 -11 10 -25 10 -16 0 -25 6 -25 15 0 9 -9 15 -25 15 -14 0 -25 5
-25 10 0 6 -22 10 -50 10 -27 0 -50 -4 -50 -10z m420 -855 c0 -11 11 -15 40
-15 22 0 40 -4 40 -10 0 -5 11 -10 25 -10 16 0 25 -6 25 -15 0 -9 9 -15 21
-15 22 0 49 -22 49 -39 0 -8 -67 -11 -210 -11 l-210 0 0 25 c0 16 -6 25 -15
25 -8 0 -15 7 -15 15 0 9 9 15 25 15 14 0 25 5 25 10 0 6 28 10 65 10 51 0 65
3 65 15 0 10 11 15 35 15 24 0 35 -5 35 -15z m-420 -25 c0 -5 16 -10 35 -10
24 0 35 -5 35 -15 0 -9 -9 -15 -21 -15 -22 0 -49 -22 -49 -39 0 -7 -25 -11
-65 -11 l-65 0 0 50 0 50 65 0 c37 0 65 -4 65 -10z m150 -75 c0 -8 -7 -15 -15
-15 -8 0 -15 7 -15 15 0 8 7 15 15 15 8 0 15 -7 15 -15z m1620 -25 c0 -5 11
-10 25 -10 16 0 25 -6 25 -15 0 -9 9 -15 25 -15 14 0 25 -4 25 -10 0 -5 11
-10 25 -10 20 0 25 -5 25 -25 0 -22 -4 -25 -40 -25 -29 0 -40 -4 -40 -15 0 -9
-9 -15 -25 -15 -14 0 -25 -4 -25 -10 0 -5 -4 -10 -10 -10 -5 0 -10 23 -10 50
0 38 -4 50 -15 50 -10 0 -15 11 -15 35 0 24 5 35 15 35 8 0 15 -4 15 -10z
m-1500 -100 c0 -73 3 -90 15 -90 11 0 15 11 15 40 0 36 3 40 25 40 23 0 25 3
25 50 l0 50 35 0 35 0 0 -175 0 -175 -35 0 c-19 0 -35 5 -35 10 0 6 -7 10 -15
10 -9 0 -15 9 -15 25 0 14 -4 25 -10 25 -5 0 -10 -11 -10 -25 0 -16 -6 -25
-15 -25 -8 0 -15 -4 -15 -10 0 -5 -16 -10 -35 -10 l-35 0 0 175 0 175 35 0 35
0 0 -90z m520 65 c0 -20 5 -25 25 -25 23 0 25 -4 25 -40 0 -39 -1 -40 -35 -40
-24 0 -35 5 -35 15 0 8 -7 15 -15 15 -8 0 -15 5 -15 10 0 6 -11 10 -25 10 -14
0 -25 -4 -25 -10 0 -5 7 -10 15 -10 8 0 15 -5 15 -11 0 -17 27 -39 49 -39 16
0 21 -6 21 -25 0 -20 5 -25 25 -25 23 0 25 -3 25 -50 0 -47 -2 -50 -25 -50
-20 0 -25 -5 -25 -25 0 -24 -2 -25 -70 -25 -68 0 -70 1 -70 25 0 16 -6 25 -15
25 -10 0 -15 11 -15 35 0 33 2 35 35 35 19 0 35 -4 35 -10 0 -5 7 -10 15 -10
8 0 15 -7 15 -15 0 -8 5 -15 10 -15 6 0 10 7 10 15 0 8 7 15 15 15 8 0 15 5
15 10 0 6 -11 10 -25 10 -16 0 -25 6 -25 15 0 10 -11 15 -35 15 -31 0 -35 3
-35 25 0 16 -6 25 -15 25 -11 0 -15 12 -15 50 0 38 4 50 15 50 9 0 15 9 15 25
0 24 2 25 70 25 68 0 70 -1 70 -25z m580 -15 c0 -36 -2 -40 -25 -40 -14 0 -25
-4 -25 -10 0 -5 -7 -10 -15 -10 -8 0 -15 -7 -15 -15 0 -8 7 -15 15 -15 10 0
15 -11 15 -35 0 -24 -5 -35 -15 -35 -12 0 -15 -15 -15 -75 l0 -75 -35 0 -35 0
0 75 c0 73 -1 75 -25 75 -22 0 -25 4 -25 35 0 31 3 35 25 35 22 0 25 4 25 36
0 35 18 64 39 64 6 0 11 7 11 15 0 11 12 15 50 15 l50 0 0 -40z m-300 -71 c0
-14 25 -39 39 -39 7 0 11 -28 11 -75 0 -60 -3 -75 -15 -75 -8 0 -15 -5 -15
-11 0 -23 -30 -39 -74 -39 -25 0 -46 5 -46 10 0 6 -7 10 -15 10 -8 0 -15 5
-15 11 0 14 -25 39 -39 39 -6 0 -11 21 -11 50 0 38 4 50 15 50 8 0 15 5 15 11
0 14 25 39 39 39 6 0 11 7 11 15 0 11 12 15 50 15 29 0 50 -5 50 -11z m450
-369 c0 -82 -3 -100 -15 -100 -12 0 -15 18 -15 100 0 82 3 100 15 100 12 0 15
-18 15 -100z m-1570 5 c0 -23 -3 -25 -50 -25 -49 0 -50 -1 -50 -30 0 -29 1
-30 50 -30 28 0 50 -4 50 -10 0 -6 -28 -10 -65 -10 l-65 0 0 65 0 65 65 0 c63
0 65 -1 65 -25z m820 -15 c0 -22 5 -40 10 -40 6 0 10 11 10 25 0 16 6 25 15
25 9 0 15 -9 15 -25 0 -14 5 -25 10 -25 6 0 10 18 10 40 0 29 4 40 15 40 12 0
15 -13 15 -55 0 -42 -3 -55 -15 -55 -8 0 -15 -4 -15 -10 0 -5 -16 -10 -35 -10
-19 0 -35 5 -35 10 0 6 -7 10 -15 10 -12 0 -15 13 -15 55 0 42 3 55 15 55 11
0 15 -11 15 -40z m250 15 c0 -23 -3 -25 -50 -25 -49 0 -50 -1 -50 -30 0 -29 1
-30 50 -30 28 0 50 -4 50 -10 0 -6 -28 -10 -65 -10 l-65 0 0 65 0 65 65 0 c63
0 65 -1 65 -25z m150 10 c0 -11 -11 -15 -40 -15 l-40 0 0 -50 c0 -27 -4 -50
-10 -50 -6 0 -10 28 -10 65 l0 65 50 0 c38 0 50 -4 50 -15z m50 -25 c0 -22 5
-40 10 -40 6 0 10 11 10 25 0 16 6 25 15 25 9 0 15 -9 15 -25 0 -14 5 -25 10
-25 6 0 10 18 10 40 0 29 4 40 15 40 12 0 15 -13 15 -55 0 -42 -3 -55 -15 -55
-8 0 -15 -4 -15 -10 0 -5 -16 -10 -35 -10 -19 0 -35 5 -35 10 0 6 -7 10 -15
10 -12 0 -15 13 -15 55 0 42 3 55 15 55 11 0 15 -11 15 -40z m250 -25 l0 -65
-65 0 -65 0 0 65 0 65 65 0 65 0 0 -65z m-1750 -380 c0 -8 5 -15 11 -15 17 0
39 -27 39 -49 0 -16 -6 -21 -25 -21 -16 0 -25 -6 -25 -15 0 -8 -4 -15 -10 -15
-6 0 -10 28 -10 65 0 37 4 65 10 65 6 0 10 -7 10 -15z"/>
<path d="M1673 1205 c-15 -17 -17 -55 -3 -55 6 0 10 -7 10 -15 0 -9 9 -15 25
-15 16 0 25 6 25 15 0 8 7 15 15 15 9 0 15 9 15 25 0 16 -6 25 -15 25 -8 0
-15 5 -15 10 0 15 -43 11 -57 -5z"/>
<path d="M2060 880 c0 -39 1 -40 35 -40 34 0 35 1 35 40 0 39 -1 40 -35 40
-34 0 -35 -1 -35 -40z"/>
<path d="M1340 1765 c0 -8 -5 -15 -11 -15 -6 0 -17 -6 -25 -14 -21 -22 -17
-36 11 -36 16 0 25 6 25 15 0 10 11 15 35 15 24 0 35 -5 35 -15 0 -8 5 -15 10
-15 6 0 10 -7 10 -15 0 -9 9 -15 25 -15 16 0 25 6 25 15 0 9 9 15 25 15 16 0
25 -6 25 -15 0 -8 5 -15 11 -15 6 0 17 -6 25 -14 8 -8 14 -19 14 -25 0 -6 7
-11 15 -11 9 0 15 9 15 25 0 16 -6 25 -15 25 -8 0 -15 7 -15 15 0 8 -4 15 -10
15 -5 0 -10 7 -10 15 0 11 -12 15 -50 15 -27 0 -50 5 -50 10 0 6 -11 10 -25
10 -16 0 -25 6 -25 15 0 10 -11 15 -35 15 -24 0 -35 -5 -35 -15z"/>
<path d="M1310 880 c0 -39 1 -40 35 -40 34 0 35 1 35 40 0 39 -1 40 -35 40
-34 0 -35 -1 -35 -40z"/>
<path d="M710 855 c0 -11 11 -15 40 -15 29 0 40 4 40 15 0 11 -11 15 -40 15
-29 0 -40 -4 -40 -15z"/>
</g>
</svg>
